<svg width="30" height="30" viewBox="0 0 30 30" fill="none" xmlns="http://www.w3.org/2000/svg">
<path d="M16.2929 10.2929C16.6834 9.90237 17.3166 9.90237 17.7071 10.2929C18.0976 10.6834 18.0976 11.3166 17.7071 11.7071L13.4645 15.9497C13.0739 16.3403 12.4408 16.3403 12.0503 15.9497C11.6597 15.5592 11.6597 14.9261 12.0503 14.5355L16.2929 10.2929Z" fill="#9D9ABA"/>
<path d="M17.7071 18.8366C18.0976 19.2271 18.0976 19.8602 17.7071 20.2508C17.3166 20.6413 16.6834 20.6413 16.2929 20.2508L12.0503 16.0081C11.6597 15.6176 11.6597 14.9844 12.0503 14.5939C12.4408 14.2034 13.0739 14.2034 13.4645 14.5939L17.7071 18.8366Z" fill="#9D9ABA"/>
</svg>
